<?xml version="1.0" encoding="utf-8"?>
<!-- Generator: Adobe Illustrator 23.0.0, SVG Export Plug-In . SVG Version: 6.00 Build 0)  -->
<svg version="1.1" id="Camada_1" xmlns="http://www.w3.org/2000/svg" xmlns:xlink="http://www.w3.org/1999/xlink" x="0px" y="0px"
	 viewBox="0 0 1920 1080" style="enable-background:new 0 0 1920 1080;" xml:space="preserve">
<style type="text/css">
	.st0{fill:#FFFFFF;}
</style>
<g>
	<path class="st0" d="M23,421.45c2.51-4.31,5.73-5.46,10.91-4.28c17.53,4,34.32-1.77,51.13-5.26
		c49.71-10.32,97.65-25.81,142.14-50.81c3.63-2.04,7.03-4.51,10.54-6.78c-0.36-0.71-0.73-1.41-1.09-2.12
		c-11.18,4.81-22.36,9.63-33.96,14.63c-0.7-5.5-0.7-5.5,17.23-17.55c-6.13,1.74-12.27,3.44-18.39,5.24
		c-6.21,1.82-12.38,3.74-19.57,4.03c2.08-1.45,4.09-2.99,6.24-4.33c18.65-11.66,37.42-23.13,55.9-35.04
		c3.34-2.15,5.53-6.09,9.63-10.78c-13.05-2.46-23.65-3.8-33.88-6.54c-19.43-5.21-38.76-10.86-57.89-17.06
		c-11.99-3.88-22.11-11.09-28.21-22.52c-14.16-26.54-28.83-52.86-41.59-80.07c-4.88-10.4-2.53-22.78,3.28-33.38
		c10.86-19.79,27.9-33.57,46.11-47.39c2.3,8.69,6.64,6.97,11.45,3.28c22.19-17.07,44.32-34.21,66.67-51.07
		c3.89-2.93,8.58-4.97,13.13-6.84c27.71-11.36,56.65-16.57,86.54-17.13c5.22-0.1,7.81,0.96,9.12,6.62
		c2.29,9.88,4.1,10.58,14.45,9.15c2.08-0.29,4.27-0.24,6.21-0.91c6.71-2.31,10.56,0.96,12.85,6.63c2.05,5.08,1.45,9.95-3.74,12.99
		c-4.15,2.43-3.76,5.38-1.27,8.38c3.8,4.57,7.94,8.86,12.08,13.42c-7.91,5.46-17.12,5.53-26.8,2.48
		c1.49,10.17-2.08,16.47-11.19,19.23c-11.76,3.57-23.71,6.51-35.58,9.74c-2.42,0.66-4.83,1.38-6.91,3.68
		c6.53-0.81,13.04-1.97,19.59-2.26c2.43-0.11,4.94,1.85,7.41,2.86c-2.05,1.45-3.92,3.71-6.19,4.21c-9.7,2.15-19.5,3.93-29.31,5.55
		c-3.72,0.61-7.35,2.67-10.87-2.56c-1.4-2.08-8.69-0.11-13.3-0.14c-4.01-0.03-8.77,1.04-11.89-0.71
		c-6.61-3.71-11.29-1.44-17.03,2.93c1.98,1.2,3.5,2.12,5.07,3.07c-8.55,9.21-16.96,18.26-25.36,27.3c0.68,0.77,1.36,1.53,2.04,2.3
		c8.4-5.43,16.81-10.87,25.21-16.3c0.78,0.29,1.57,0.58,2.35,0.86c-0.85,2.28-1.04,5.42-2.67,6.68c-5.79,4.47-11.87,8.67-18.27,12.2
		c-2.74,1.51-6.52,1.11-10.32,1.64c2.09,4.97,2.97,10.4-5.69,11.74c2.05,3.26,3.68,5.86,5.68,9.04c-2.13,0.92-3.85,1.66-5.6,2.41
		c0.33,0.64,0.52,1.39,0.75,1.41c32.78,1.93,59.44,17.95,85.81,35.73c19.04,12.84,30.43,30.66,39.15,50.77
		c8.22,18.97,15.99,38.16,23.13,57.56c7.49,20.36,3.54,39.58-10.12,55.98c-14.1,16.92-30.81,30.26-53.66,34.4
		c-10.98,1.99-21.69,5.95-32.17,9.93c-4.97,1.89-10.93,4.93-13.25,9.19c-3.96,7.25-10.07,7.94-16.54,10.4
		c-11.62,4.42-22.87,10.13-33.67,16.35c-17.01,9.8-34.85,14.76-54.5,12.77c-2.01-0.2-4.09,0.39-6.15,0.53
		c-5.9,0.4-11.8,0.75-16.99,1.08c-0.55-3.93-0.94-6.7-1.33-9.47c-2.8,0.84-5.92,1.15-8.34,2.62c-4.41,2.66-6.64,1.47-8.36-3.61
		c4.79-2.19,9.32-4.26,13.86-6.33c-0.13-0.53-0.26-1.07-0.39-1.6c-5.68,0-11.35,0-17.68,0c1.02,2.29,1.93,4.32,2.84,6.36
		c-8.17,4.45-8.23-4.47-11.79-7.28c-2.56,2.11-4.82,3.96-7.07,5.82c-0.66-1.54-2.29-3.89-1.8-4.47c2.66-3.19,5.84-5.95,9.12-9.13
		c-6.14,1.69-14.78-5.68-19.12,5.87c-0.32,0.84-3.65,1.51-3.76,1.32c-1.09-2.09-1.8-4.37-2.84-7.2
		c-16.02-3.57-17.68-5.15-15.76-17.9c10.77,0.91,21.71,1.89,32.66,2.7c2.03,0.15,4.19-0.04,6.14-0.6
		c21.1-6.03,42.16-12.17,63.24-18.29c1.98-0.58,4.52-2.28,5.84-1.6c7.62,3.9,13.82-0.43,20.14-3.08
		c21.48-9.01,42.91-18.17,64.16-27.71c3.85-1.73,6.75-5.55,10.1-8.41c-0.53-0.8-1.06-1.6-1.6-2.4c-8.27,3.45-16.54,6.91-24.82,10.35
		c-39.44,16.38-79.03,32.53-121.21,40.42c-15.58,2.91-31.71,2.99-47.61,4.08c-1.92,0.13-4.14-1.25-5.91-2.4
		c-5.7-3.71-11.26-7.64-16.88-11.49C23,423.54,23,422.49,23,421.45z M223.32,110.19c-21.16,6.21-42.05,24.77-42.97,38.05
		C195.48,134.85,209.4,122.52,223.32,110.19z"/>
	<path class="st0" d="M802.02,296.85c-7.57,12.73-14.84,24.94-22.99,38.64c6.9,0.43,11.65,0.73,17.92,1.12
		c-15.25,25.29-33.92,46.26-51.73,68.9c-1.17,2.19-2.51,5.46-4.5,8.26c-3.88,5.47-7.55,11.26-12.31,15.91
		c-28.21,27.57-60.13,48.91-99.73,56.22c-54.55,10.06-97.64-8.1-129.96-53.04c-28.59-39.76-43.67-84.89-53.47-132.17
		c-0.79-3.83,0.63-8.13,1.14-12.2c0.13-1,1.21-2.08,1-2.91c-5.76-22.53,3.53-42.77,10.78-62.8c17.5-48.33,48.61-88.06,81.58-126.77
		c30.99-36.37,71.4-54.52,116.69-62.15c14.14-2.38,30.44-2.54,44.67,0.29c21,4.18,40.06,15.05,56.82,29.09
		c2.27,1.9,5.54,2.58,7.9,4.41c7.33,5.7,16.3,10.43,21.26,17.81c11.2,16.66,21.74,34.06,29.92,52.35
		c6.32,14.13,9.29,29.51,5.64,46.04c-5.47,24.74-7.97,50.14-13.12,74.96c-1.94,9.34-7.85,17.82-11.67,26.81
		c-0.66,1.54-0.39,3.9,0.32,5.49C799.21,293.45,801.04,295.44,802.02,296.85z M556.82,211.69c0.87,0.7,1.74,1.41,2.6,2.11
		c-0.56,1.85-0.89,3.8-1.71,5.53c-5.49,11.59-11.58,22.93-16.55,34.73c-9.53,22.65-19.62,45.17-27.3,68.46
		c-8.3,25.2,10.66,54.82,35.53,57.35c22.51,2.29,44.41-0.38,64.84-11.23c74.13-39.39,126.02-99.29,160.47-174.93
		c3.93-8.62,7.14-14.2,17.73-14.4c4.25-0.08,11.16-5,11.98-8.77c1.31-6.05-0.49-13.32-2.65-19.49
		c-10.6-30.29-36.37-46.12-61.1-62.84c-0.63-0.43-1.42-0.82-2.15-0.85c-16.36-0.69-33.57-1.73-46.69,9.27
		c-8.62,7.23-17.43,10.26-27.76,11.7c-3.08,0.43-6.03,1.71-9.09,2.42c-1.75,0.41-4.07,1.27-5.3,0.53
		c-5.51-3.32-9.45,0.04-13.62,2.59c-28.17,17.21-51.25,39.84-69.68,67.06c-9.58,14.15-17.89,29.16-26.78,43.77
		c0.46,0.24,0.91,0.48,1.37,0.72C546.25,220.85,551.54,216.27,556.82,211.69z"/>
	<path class="st0" d="M1077.35,352.72c-11.1,4.8-22.19,9.6-33.46,14.48c-4.06-7.61,1.49-8.56,5.04-10.43c3.8-2,7.79-3.66,11.14-7.03
		c-12.04,3.6-24.08,7.19-36.11,10.79c-0.37-0.59-0.74-1.18-1.11-1.77c2.18-1.68,4.25-3.54,6.57-5
		c18.62-11.7,37.35-23.22,55.86-35.09c3.05-1.96,5.17-5.37,9.4-9.91c-10.88-2.04-19.42-3.54-27.92-5.24
		c-24.68-4.94-49.4-10.05-71.67-22.32c-7.06-3.89-14.54-9.49-18.41-16.26c-15.45-27-30.66-54.27-43.48-82.57
		c-3.74-8.25-1.74-21.23,1.94-30.29c9.07-22.32,28.42-36.15,47.48-51.27c2.3,8.14,6.36,7.32,11.03,3.77
		c22.28-16.96,44.5-33.99,66.9-50.77c3.71-2.78,8.08-4.83,12.41-6.57c30.02-12.04,61.33-17.16,93.2-17.43
		c0.74,0.78,1.27,1.08,1.4,1.51c4.87,15.87,4.89,16.08,20.88,13.8c6.13-0.87,11.38-1.2,14.19,5.65c2.48,6.04,0.8,10.39-4.45,14.25
		c-1.3,0.96-1.65,5.51-0.54,7.02c3.51,4.77,7.92,8.89,12.08,13.37c-8.1,6.49-17.55,4.66-27.01,2.91
		c1.79,9.55-1.86,16.24-10.36,18.83c-12.02,3.66-24.18,6.82-36.28,10.22c-2.37,0.66-4.72,1.41-6.76,3.64
		c8.7-0.76,17.39-1.52,26.09-2.28c0.48,0.77,0.96,1.53,1.43,2.3c-1.62,1.5-3.03,3.95-4.89,4.35c-11.5,2.51-23.08,4.71-34.7,6.59
		c-1.77,0.29-3.82-2.12-5.86-2.39c-4.61-0.61-9.29-0.72-13.95-0.91c-4.01-0.16-8.33,0.79-11.97-0.4c-8.44-2.74-8.51-3.12-16.6,2.91
		c1.14,0.44,1.96,0.64,2.66,1.06c0.81,0.48,1.52,1.14,2.3,1.75c-8.53,9.01-16.76,17.7-24.98,26.39c0.39,0.64,0.78,1.29,1.18,1.93
		c4.12-2.37,8.3-4.66,12.36-7.14c4.42-2.71,8.73-5.61,13.04-8.39c4.09,3.67,3.72,6.28-0.51,8.85c-5.59,3.4-10.81,7.44-16.53,10.59
		c-3.27,1.8-7.22,2.37-11.67,3.75c0.32,1.22,1.01,3.84,1.81,6.84c-2.18,1.28-4.36,2.57-6.71,3.96c-0.75,3.9,9.58,8.35-1.66,12.14
		c43.25,3.03,75.64,25.64,106.03,51.85c4.73,4.08,8.08,10.38,10.65,16.27c12.04,27.55,25.14,54.78,34.77,83.18
		c6.54,19.26-1.03,37.95-14.85,52.77c-14.44,15.5-30.79,27.95-52.89,31.56c-11.2,1.83-22.28,6-32.63,10.81
		c-5.67,2.63-9.62,8.87-14.52,13.28c-1.56,1.41-3.6,2.78-5.6,3.14c-15.8,2.85-29.51,9.86-42.65,18.98
		c-14.67,10.18-32.03,12.34-49.46,12.97c-9.04,0.33-18.09,0.06-27.56,0.06c0-1.64,0.07-2.84-0.02-4.04
		c-0.11-1.59,0.19-4.01-0.66-4.55c-1.13-0.72-3.6-0.58-4.79,0.23c-4.68,3.19-8.21,5.43-12.97-0.91c-2.81-3.75-8.7-5.2-13.61-7.9
		c-0.93,0.69-3.25,2.43-5.57,4.16c-0.7-1.5-2.41-3.62-1.93-4.38c2.09-3.31,4.8-6.23,6.85-8.75c-6.51-2.2-10.34-1.14-16.2,5.27
		c-0.9,0.99-3.69,1.89-3.83,1.68c-1.41-2.17-2.44-4.58-3.96-7.68c-1.35-0.15-3.89-0.44-4.69-0.53
		c-7.39,9.89-14.07,18.84-21.41,28.65c-6.44-12.57-11.48-23.39-17.43-33.7c-4.83-8.36-10.36-16.41-16.32-24.01
		c-4.6-5.86-5.88-12.47-2.84-18.24c3.54-6.71,9.83-12.46,18.48-10.44c6.64,1.56,14.69,3.44,18.79,8.1
		c6.48,7.37,13.97,8.4,21.76,7.16c64.02-10.15,125.8-27.31,182.33-60.25c1.7-0.99,3.22-2.27,4.83-3.42
		C1077.95,353.75,1077.65,353.23,1077.35,352.72z M878.75,439.69c2.46,1.9,3.71,3.66,4.75,3.55c14.65-1.61,29.09,2.59,43.98,0.27
		c24.1-3.75,45.3-18.62,70.46-17.62c25.46-10.95,50.97-21.81,76.32-33.01c2.67-1.18,4.43-4.44,6.6-6.73
		c-0.56-0.54-1.12-1.08-1.67-1.62c-2.38,0.98-4.74,1.98-7.13,2.92c-26.03,10.28-51.84,21.19-78.17,30.67
		c-35.33,12.72-71.32,22.93-109.56,20.77C883.14,438.83,881.91,439.22,878.75,439.69z M1020.78,144.41
		c0.68,0.71,1.36,1.42,2.04,2.13c12.58-11.04,25.16-22.08,37.74-33.12c-0.68-0.75-1.37-1.5-2.05-2.26
		C1044.25,120.36,1028.47,127.82,1020.78,144.41z M934.61,476.66c4.69-1.94,8.9-3.68,13.11-5.43c-0.2-0.47-0.4-0.93-0.6-1.4
		c-5.42,0-10.84,0-17.05,0C931.77,472.38,932.9,474.08,934.61,476.66z"/>
	<path class="st0" d="M1719.25,331.98c-4.82,29.54-16.35,40.96-45.4,44.77c-1.06,13.41-5.23,25.74-16.42,34.71
		c-10.97,8.79-23.37,11.2-37.35,8.58c-7.01,26.65-29.33,41-47.54,57.97c-23.39,21.8-62.5,7.03-68.62-24.41
		c-0.59-3.05-0.85-6.17-1.34-9.8c-27.28-2.48-43.13-16.86-45.37-45.03c-27.18-2.53-42.87-16.71-45.14-44.91
		c-2.8-0.41-5.59-0.78-8.38-1.22c-21.44-3.43-36.23-21.14-36.48-42.84c-0.04-3.62-1.75-8.26-4.34-10.64
		c-31.48-28.92-50.83-64.04-57.09-106.57c-11.58-78.66,38.88-150.23,116.82-165.49c49.92-9.78,93.31,3.67,131.33,36.23
		c4.66,4,7.33,4.17,12.51,1c51.84-31.65,106.18-38.57,161.76-11.67c64.7,31.32,95.33,111.74,70.54,180.32
		c-6.95,19.22-17.07,36.46-30.83,51.61c-1.99,2.19-3.72,5.16-4.28,8.02c-4.64,23.81-17.44,35.79-41.78,38.69
		C1721.07,331.41,1720.33,331.7,1719.25,331.98z M1378.56,284.1c11.21-11.69,21.54-22.82,32.27-33.56
		c12.46-12.48,27.44-16.12,44.04-10.18c16.46,5.89,26.29,17.85,28.17,35.4c0.56,5.23,2.19,6.91,7.42,7.39
		c20.6,1.89,36.16,17.91,38.15,38.53c0.17,1.76,0.54,3.49,0.8,5.08c30.33,5.63,38.21,13.13,44.74,41.67
		c0.38,1.64,2.75,3.88,4.34,4.01c13.35,1.08,23.51,7.4,32.44,17.15c11.27,12.31,24.76,13.49,34.51,4.05
		c9.72-9.41,8.29-21.97-3.91-34.32c-0.37-0.37-0.74-0.74-1.11-1.11c-18.61-18.44-37.24-36.86-55.82-55.33
		c-10.59-10.52-21.21-21.02-31.61-31.72c-5.2-5.35-5.25-10.75-0.52-15.12c5.17-4.78,10.37-4.11,15.33,0.49
		c1.34,1.25,2.62,2.57,3.92,3.86c29.21,28.97,58.33,58.02,87.67,86.85c10.15,9.97,22.71,10.21,31.34,1.28
		c9.06-9.37,8.32-21.64-2.02-31.92c-17.84-17.73-35.73-35.4-53.58-53.12c-12.27-12.18-24.55-24.36-36.72-36.64
		c-4.71-4.75-5.68-9.99-0.74-15.26c4.16-4.43,10.16-4.28,15.43,0.24c1.19,1.02,2.22,2.23,3.33,3.33
		c29.4,29.14,58.7,58.38,88.25,87.37c9.93,9.74,22.77,9.81,31.49,0.94c8.72-8.87,7.96-21.57-1.87-31.35
		c-39.38-39.18-78.79-78.34-118.09-117.61c-3.82-3.82-6.91-8.37-11.27-13.73c-16.87,17.3-31.64,32.5-46.48,47.63
		c-9.52,9.71-20.65,16.82-33.71,20.91c-29.96,9.4-66.78-2.43-82.36-27.34c33.05-33.39,66.28-66.96,100.18-101.2
		c-7.06-5.19-14.07-11.12-21.8-15.91c-79.4-49.11-189.99-0.88-194.6,97.69C1323.93,210.59,1341.48,250.43,1378.56,284.1z
		 M1755.47,265.44c1.91-1.82,2.71-2.43,3.32-3.18c43.83-53.59,32.51-140.09-23.64-180.78c-50.98-36.94-129.62-29.88-177.36,16.41
		c-27.65,26.8-54.68,54.24-81.96,81.43c-0.99,0.99-1.6,2.35-2.39,3.55c21.87,14.27,49.55,11.02,68.81-7.95
		c17.18-16.91,34.19-33.99,51.26-51.01c8.18-8.15,13.26-8.34,21.33-0.39c12.31,12.14,24.59,24.32,36.75,36.61
		C1686.16,195.11,1720.68,230.16,1755.47,265.44z M1457.74,377.19c2.8-1.43,8.36-2.96,12.15-6.42c10.82-9.87,21.04-20.4,31.27-30.9
		c8.57-8.8,8.55-21.29,0.33-29.57c-8.28-8.35-21.03-9.02-29.69-0.83c-11.01,10.43-21.6,21.32-32.21,32.16
		c-6.4,6.54-7.29,14.43-3.7,22.52C1439.49,372.26,1446.33,376.22,1457.74,377.19z M1412.6,332.1c2.24-0.97,7.09-1.78,10.09-4.58
		c12.04-11.23,23.9-22.72,35.05-34.82c7.36-7.98,5.93-20.01-1.9-27.68c-7.67-7.51-20.09-8.71-27.84-1.58
		c-11.73,10.8-23.06,22.07-34.01,33.66c-6.06,6.42-7.04,14.54-3.11,22.66C1394.79,327.79,1401.6,331.58,1412.6,332.1z
		 M1598.13,418.09c-0.42-11.84-4.43-18.53-12.49-22.3c-8.73-4.08-16.99-2.65-23.9,4.01c-10.35,9.98-20.58,20.1-30.55,30.45
		c-8.86,9.19-8.84,21.68-0.46,30.2c8.32,8.46,21.11,8.55,30.24-0.2c10.38-9.95,20.74-19.95,30.52-30.49
		C1595,425.98,1596.76,420.58,1598.13,418.09z M1554.02,371.06c-1.23-9.91-5.69-16.35-13.63-20.12c-8.31-3.95-16.51-3-23.27,3.45
		c-10.59,10.1-20.94,20.45-31.17,30.91c-8.65,8.84-8.94,21.35-1.06,29.59c8.55,8.94,21.57,9.37,30.85,0.51
		c10.4-9.92,20.7-19.98,30.45-30.53C1549.69,381.09,1551.46,375.71,1554.02,371.06z"/>
	<path class="st0" d="M182.61,785.53c10.65,4.94,21.54,14.19,25.43,29.06c2.29,8.77,3.51,18.05,3.59,27.12
		c0.37,40.08,0.43,80.17,0.03,120.26c-0.2,19.68-2.13,39.27-12.39,56.85c-12.72,21.8-33.6,30.78-57.08,32.03
		c-30.83,1.64-61.8,0.61-92.71,0.67c-1.25,0-2.51-0.58-4.44-1.06c0-2.59,0-5.16,0-7.73c0.01-166.37,0.01-332.74,0.02-499.11
		c0-9.76-0.01-9.47,10.07-9.39c25.94,0.21,51.89-0.44,77.8,0.45c11.02,0.38,22.25,2.75,32.83,6.01
		c19.05,5.87,29.31,20.83,33.64,39.22c3.21,13.65,5.05,27.89,5.36,41.91c0.75,34.31,0.53,68.64,0.15,102.96
		c-0.18,16.24-1.28,32.55-11.67,46.37C189.52,776.09,185.87,781.11,182.61,785.53z M95.46,808.46c0,9.28,0,15.82,0,22.36
		c0,54.26,0.08,108.53-0.13,162.79c-0.02,6.32,1.5,9.02,8.3,8.57c9.14-0.61,18.36,0.08,27.5-0.52c14.32-0.94,24.63-9.01,26.95-21.1
		c1.47-7.68,2.63-15.55,2.69-23.35c0.29-34.08,0.31-68.16-0.01-102.24c-0.09-9.11-1.18-18.31-2.81-27.29
		c-1.42-7.85-5.85-14.65-14.45-15.6C127.82,810.38,112.03,809.65,95.46,808.46z M95.46,583.45c0,15.84,0,30.74,0,45.65
		c0,42.19,0.13,84.39-0.15,126.58c-0.04,6.24,1.61,8.31,7.91,7.95c9.41-0.53,18.87,0.1,28.29-0.3c14.69-0.62,21.88-5.85,25.56-18.81
		c1.19-4.19,1.14-8.81,1.18-13.23c0.19-27.25,0.28-54.51,0.32-81.76c0.02-13.1,0.19-26.22-0.37-39.3
		c-0.66-15.71-7.4-24.9-21.59-26.46C123.22,582.29,109.55,583.45,95.46,583.45z"/>
	<path class="st0" d="M299.68,818.56c-0.2,2.93-0.43,4.7-0.42,6.46c0.15,71.8,0.32,143.61,0.48,215.41
		c0.03,11.06,0.03,11.09-10.64,11.15c-8.91,0.05-17.82,0.05-26.73,0.04c-13.01-0.01-13.02-0.02-13-12.65
		c0.13-60.54,0.34-121.07,0.38-181.61c0.06-104.57,0.09-209.14-0.14-313.71c-0.02-7.11,1.65-9.55,9.07-9.43
		c26.46,0.43,52.97-0.64,79.39,0.56c12.8,0.58,26.05,3.34,38.01,7.94c26.35,10.15,38.07,32.34,40.25,58.87
		c2.21,26.84,2.17,53.9,2.25,80.87c0.07,23.03-0.08,46.15-1.98,69.08c-1.83,22.04-11.63,40.69-30.96,52.95
		c-4.3,2.73-4.46,5.8-3.67,9.89c4.82,25.17,9.74,50.33,14.36,75.55c4.8,26.24,9.4,52.52,13.9,78.81
		c4.02,23.47,7.6,47.01,11.73,70.46c2,11.34,1.78,12-9.82,12.01c-11.79,0.01-23.59-0.11-35.38,0.03c-5.26,0.06-7.12-2.24-7.83-7.43
		c-4.74-34.73-9.66-69.43-14.83-104.1c-4.36-29.23-9.05-58.4-13.77-87.57c-1.59-9.8-3.61-19.53-5.73-29.23
		c-0.35-1.62-2.17-4.13-3.38-4.17C320.83,818.42,310.43,818.56,299.68,818.56z M299.22,676.96c0.01,0,0.02,0,0.03,0
		c0,29.58,0.12,59.17-0.11,88.75c-0.04,5.72,1.54,8.04,7.53,7.75c8.88-0.43,17.84,0.35,26.69-0.33c13.21-1,25.81-4.33,31.18-18.32
		c2.48-6.45,4.04-13.66,4.11-20.55c0.4-35.86,0.37-71.73,0.03-107.6c-0.07-7.76-1.4-15.67-3.35-23.21
		c-2.44-9.43-8.42-16.81-18.6-17.89c-14.49-1.54-29.11-1.97-43.69-2.37c-1.22-0.03-3.65,3.77-3.67,5.8
		C299.15,618.31,299.22,647.64,299.22,676.96z"/>
	<path class="st0" d="M1534,792.66c0-82.57,0-165.13,0-247.7c0-10.96,0.01-10.99,10.54-10.99c25.16,0,50.33-0.11,75.49,0.06
		c42.59,0.3,71.49,26.76,75.47,69.32c1.19,12.76,1.89,25.61,1.92,38.42c0.2,79.42,0.37,158.85,0.07,238.27
		c-0.13,34.3-0.58,68.65-2.41,102.89c-2.06,38.38-28.42,65.19-66.69,67.53c-29,1.77-58.15,0.94-87.23,1.48
		c-7.81,0.15-7.19-4.88-7.18-10.01c0.16-62.12,0.3-124.24,0.41-186.36c0.04-20.97,0.01-41.94,0.01-62.91
		C1534.26,792.66,1534.13,792.66,1534,792.66z M1584.33,582.44c0,3.03,0,4.05,0,5.07c-0.17,51.35-0.43,102.71-0.49,154.06
		c-0.09,84.91-0.01,169.82-0.11,254.73c0,4.27,1.27,6.43,5.74,6.33c9.69-0.22,19.43,0.18,29.07-0.61
		c13.46-1.1,23.62-7.51,26.66-21.45c1.65-7.58,2.24-15.52,2.24-23.29c0.02-110.33-0.14-220.66-0.27-330.98
		c-0.01-4.45-0.05-8.92-0.35-13.36c-0.96-14.13-8.22-25.17-21.97-27.92C1611.98,582.45,1598.46,583.2,1584.33,582.44z"/>
	<path class="st0" d="M1400,536.03c-9.01,22-17.78,43.46-26.59,64.9c-22.33,54.35-44.8,108.65-66.79,163.14
		c-1.65,4.1-1.26,9.98,0.29,14.27c18.31,50.53,36.98,100.93,55.62,151.34c14.02,37.91,28.12,75.79,42.22,113.67
		c2.55,6.86,1.64,8.47-5.58,8.52c-13.63,0.09-27.26-0.14-40.88,0.15c-5.34,0.11-8.02-1.95-9.77-6.92
		c-20.68-58.57-41.54-117.06-62.29-175.6c-6.87-19.4-13.53-38.87-21.11-60.68c-0.86,3.83-1.49,5.31-1.49,6.8
		c0.02,75.48,0.01,150.96,0.3,226.43c0.03,7.46-2.11,10.37-9.8,10.01c-11.25-0.52-22.53-0.26-33.8-0.1
		c-5.35,0.08-7.75-2.21-7.53-7.52c0.14-3.4,0.08-6.81,0.08-10.22c0-163.8,0.05-327.61-0.16-491.41c-0.01-7.28,2.41-8.97,9.13-8.65
		c10.98,0.53,22.01,0.44,33.01,0.14c6.29-0.17,8.58,1.59,8.56,8.47c-0.18,66.56,0.03,133.12,0.15,199.68c0,0.97,0.33,1.93,1.91,3.31
		c3.37-8.49,6.8-16.95,10.11-25.46c23.36-60.1,46.65-120.22,70.2-180.24c0.93-2.36,4.16-5.37,6.39-5.43
		c14.92-0.41,29.86-0.12,44.79,0.01C1397.66,534.65,1398.34,535.24,1400,536.03z"/>
	<path class="st0" d="M543.86,534.05c7.6,0,15.2,0.09,22.79-0.03c4.88-0.08,6.6,2.01,7.22,6.96c4.93,39.45,10.33,78.84,15.32,118.28
		c3.51,27.77,6.45,55.61,9.93,83.38c3.49,27.77,7.38,55.5,11.02,83.25c3.64,27.76,7.19,55.54,10.79,83.31
		c3.84,29.59,7.69,59.18,11.53,88.76c2.05,15.82,4.25,31.63,5.91,47.5c0.18,1.72-2.71,5.37-4.27,5.43
		c-13.08,0.44-26.2,0.51-39.28-0.01c-1.98-0.08-5.18-3.57-5.5-5.82c-3.49-24.09-6.72-48.22-9.51-72.4c-0.59-5.15-2.3-6.56-7.21-6.51
		c-20.7,0.21-41.4,0.27-62.1-0.02c-5.54-0.08-7.24,2.24-7.84,7.22c-2.38,20.01-5.25,39.96-7.48,59.99
		c-1.99,17.86-1.72,17.89-19.2,17.89c-7.86,0-15.72-0.12-23.58,0.02c-5.62,0.11-7.74-1.37-6.79-7.85
		c5.16-35.48,9.71-71.05,14.6-106.57c3.74-27.21,7.75-54.39,11.5-81.6c3.5-25.39,6.81-50.82,10.24-76.22
		c3.64-26.97,7.31-53.94,10.98-80.91c3.8-27.99,7.67-55.97,11.38-83.98c3.26-24.64,6.41-49.29,9.45-73.96
		c0.57-4.63,2.93-6.29,7.29-6.24c7.6,0.09,15.2,0.02,22.79,0.02C543.86,533.98,543.86,534.02,543.86,534.05z M572.94,920.39
		c-9.98-81.79-19.87-162.82-29.75-243.86c-0.69,0.03-1.37,0.06-2.06,0.09c-10.38,81-20.76,162.01-31.23,243.77
		C531.44,920.39,551.71,920.39,572.94,920.39z"/>
	<path class="st0" d="M1735.06,922.37c0-18.61,0.14-37.21-0.08-55.82c-0.07-5.94,1.82-8.58,8.14-8.38
		c10.73,0.35,21.5,0.37,32.22-0.05c6.46-0.25,7.98,2.52,7.95,8.41c-0.19,32.49-0.32,64.99,0.09,97.48
		c0.09,7.46,1.53,15.16,3.8,22.29c4.3,13.53,15.18,19.61,30.94,18.57c15.89-1.04,24.31-7.6,27.36-22.05
		c1.29-6.1,2.1-12.41,2.17-18.64c0.26-21.22-1.13-42.54,0.4-63.66c2.12-29.34-8.79-52.24-29.36-72.06
		c-16.97-16.35-33.59-33.09-49.62-50.37c-11.32-12.2-24.22-23.82-28.98-40.47c-2.91-10.18-4.41-21.07-4.6-31.67
		c-0.57-32.48-0.8-65,0.01-97.47c0.49-19.8,4.78-39.07,18.7-54.49c12.87-14.26,28.98-22.25,48.39-21.99
		c15.11,0.2,30.57-0.43,45.24,2.47c23.11,4.58,37.43,20.36,42.35,43.23c3.06,14.21,4.9,28.88,5.36,43.41
		c0.84,26.44,0.05,52.93,0.41,79.39c0.1,6.99-2.3,9.31-9.07,9.04c-9.68-0.38-19.4-0.39-29.08,0.04c-6.96,0.31-9.64-1.76-9.55-9.27
		c0.35-28.3,0.28-56.6-0.23-84.9c-0.12-6.91-1.65-14.09-4.03-20.6c-4.91-13.49-21.07-17.14-34.72-14.02
		c-15.63,3.58-22.89,13.03-22.99,29.23c-0.2,31.44,0,62.89,0.01,94.34c0,10.88,4.94,19.89,11.88,27.45
		c17.15,18.7,35.02,36.73,52.34,55.28c13.72,14.69,29.35,28.22,37.06,47.29c4.43,10.95,8.1,23,8.42,34.66
		c1.07,38.22,1.61,76.54,0.07,114.73c-1.06,26.2-10.62,49.1-35.99,62.78c-20.84,11.24-43.18,10.88-64.81,7.89
		c-31.07-4.29-53.91-30-57.14-61.55c-2.39-23.39-2.7-47-3.93-70.51C1734.47,922.4,1734.76,922.38,1735.06,922.37z"/>
	<path class="st0" d="M776.28,583.11c-17.03,0-32.98,0-48.92,0c-17.29,0-34.59-0.2-51.88,0.1c-6.12,0.11-8.32-1.84-8.08-8.11
		c0.44-11.51,0.32-23.06,0.01-34.58c-0.13-4.86,1.77-6.62,6.33-6.61c48.74,0.06,97.47,0.11,146.21,0.07c4.85,0,6.27,2.16,6.18,6.77
		c-0.24,11.79,0.91,23.69-0.4,35.34c-1.3,11.58-4.64,22.97-7.57,34.32c-6.79,26.26-13.89,52.43-20.85,78.64
		c-7.03,26.5-14.07,52.99-21.03,79.5c-6.63,25.24-13.08,50.53-19.74,75.77c-7.85,29.74-15.83,59.45-23.75,89.17
		c-5.72,21.46-11.44,42.91-17.09,64.38c-0.31,1.17-0.04,2.5-0.04,4.66c2.96,0,5.5,0.01,8.04,0c31.44-0.14,62.88-0.14,94.31-0.56
		c6.28-0.08,8.33,1.96,8.12,8.12c-0.38,11.25-0.34,22.54-0.04,33.79c0.15,5.68-1.63,7.89-7.61,7.85
		c-48.73-0.32-97.47-0.52-146.2-0.38c-6.74,0.02-8.62-2.27-8.44-8.58c0.35-11.78-0.89-23.69,0.38-35.34
		c1.24-11.32,4.48-22.46,7.41-33.54c7.75-29.29,15.88-58.47,23.72-87.74c9.26-34.54,18.39-69.11,27.54-103.68
		c7.81-29.52,15.45-59.08,23.35-88.58C756.04,657.4,766.02,620.93,776.28,583.11z"/>
	<path class="st0" d="M965.96,791.86c0-83.09,0.07-166.17-0.15-249.26c-0.02-6.58,1.79-8.9,8.36-8.68
		c11.26,0.37,22.54,0.31,33.8-0.03c6.4-0.19,8.54,1.9,8.52,8.6c-0.25,61.59-0.14,123.19-0.15,184.78
		c-0.01,89.11,0.02,178.23-0.18,267.34c-0.01,5.96,1.74,7.64,7.58,7.58c24.9-0.27,49.8,0.09,74.7-0.24
		c7.54-0.1,10.2,2.31,9.74,10.02c-0.65,10.71-0.27,21.48-0.1,32.23c0.09,5.34-2.12,7.49-7.5,7.48c-42.46-0.1-84.92-0.18-127.38,0.05
		c-7.85,0.04-7.27-4.65-7.27-9.82c0.04-82.04,0.03-164.07,0.04-246.11C965.96,794.48,965.96,793.17,965.96,791.86z"/>
	<path class="st0" d="M866.69,792.66c0-83.08,0.09-166.16-0.16-249.24c-0.02-7.19,1.84-9.86,9.18-9.55
		c11.51,0.48,23.06,0.25,34.59,0.09c4.67-0.06,6.83,1.67,6.39,6.48c-0.22,2.34-0.05,4.71-0.05,7.07c0,164.59,0,329.18,0.01,493.77
		c0,10.3,0,10.32-10.37,10.34c-9.96,0.02-19.94-0.4-29.87,0.11c-7.54,0.39-9.88-2.19-9.86-9.84
		C866.78,958.82,866.69,875.74,866.69,792.66z"/>
	<path class="st0" d="M1438.42,792.14c0-79.68,0.02-159.37-0.01-239.05c-0.01-19.1-0.08-19.1,19.43-19.1
		c7.34,0,14.7,0.34,22.01-0.11c6.19-0.38,8.16,1.71,8.06,8.02c-0.42,26.73-0.4,53.46-0.41,80.2c-0.03,101.18-0.04,202.36,0,303.53
		c0.02,38.53,0.18,77.06,0.29,115.59c0.03,10.67,0.06,10.68-10.94,10.69c-9.7,0.01-19.43-0.48-29.09,0.13
		c-7.74,0.49-9.92-2.38-9.88-9.86c0.26-50.59,0.14-101.18,0.15-151.77c0-32.76,0-65.52,0-98.28
		C1438.16,792.14,1438.29,792.14,1438.42,792.14z"/>
	<path class="st0" d="M408.27,489.59c-8.78-24.37-21.6-43.02-34.54-61.79c-7.72-11.2,1.58-23.66,13.85-24.97
		c16.19-1.73,27.98,8.71,31.46,26.51c1.68,8.59,0.91,17.67,7.27,25.16c1.71,2.01,1.84,7.37,0.36,9.73
		C421.52,472.45,415.35,480.02,408.27,489.59z"/>
	<path class="st0" d="M1014,379.53c-10.96,7.48-23.39,11.5-36.33,14.19c-1.3,0.27-3.36-0.96-4.31-2.12
		c-0.45-0.55,0.56-3.5,1.41-3.77c12.74-4,25.56-7.73,38.36-11.52C1013.42,377.38,1013.71,378.46,1014,379.53z"/>
	<path class="st0" d="M133.15,394.16c0.56-6.65,24.84-15.9,39.4-15.6C160.94,387.19,147.57,391.18,133.15,394.16z"/>
	<path class="st0" d="M223.32,110.19c-13.92,12.33-27.84,24.66-42.97,38.05C181.27,134.97,202.16,116.4,223.32,110.19z"/>
	<path class="st0" d="M934.61,476.66c-1.72-2.58-2.84-4.28-4.54-6.83c6.21,0,11.63,0,17.05,0c0.2,0.47,0.4,0.93,0.6,1.4
		C943.51,472.97,939.3,474.72,934.61,476.66z"/>
</g>
</svg>
